<?xml version="1.0" encoding="utf-8"?>
<!-- Generator: Adobe Illustrator 25.2.1, SVG Export Plug-In . SVG Version: 6.00 Build 0)  -->
<svg version="1.1" id="moxy" xmlns="http://www.w3.org/2000/svg" xmlns:xlink="http://www.w3.org/1999/xlink" x="0px" y="0px"
	 viewBox="0 0 310.9 89.6" style="enable-background:new 0 0 310.9 89.6;" xml:space="preserve">
<style type="text/css">
	.st0{fill:#0260CB;}
</style>
<g>
	<path class="st0" d="M19.4,1.7L20,7.8c0.2,1.8-0.1,3.1-0.5,3.8h0.2c2.3-5,8-9.6,14.7-10.9c1.8-0.5,3.8-0.7,5.8-0.5
		C47.4,0.6,53.4,4,56.4,10.9C61.3,4.3,68.3,0,75.9,0c12.6,0,20.7,7.9,20.7,24.2v37.4H75.2V27c0-4.6-1.9-7.8-6-7.8
		c-8.8,0-10.1,8-10.1,17v25.4H37.6V27c0-4.4-1.7-7.8-5.9-7.8c-8.8,0-10.2,7.9-10.2,17v25.4H0v-60h19.4V1.7z"/>
	<path class="st0" d="M169.4,31.7c0,18.2-13.7,31.7-32.5,31.7c-19,0-32.5-13.4-32.5-31.7S117.9,0,136.9,0
		C155.7,0,169.4,13.5,169.4,31.7z M149.4,31.7c0-8.5-5.6-13.9-12.5-13.9c-7,0-12.5,5.4-12.5,13.9s5.5,13.9,12.5,13.9
		C143.7,45.6,149.4,40.2,149.4,31.7z"/>
	<path class="st0" d="M216.3,30.5l20.5,31.2h-23.3l-10.3-16l-10,16h-23.5l19.9-29.3L170,1.7h23.8l8.6,16.6l9.1-16.6h24.4L216.3,30.5
		z"/>
	<path class="st0" d="M244.5,69.4c1,0.4,3.8,1.3,7.4,1.3c7,0,10.8-3.8,13.3-8.6L240.7,1.7H264l6.2,20.4c2,6.7,4.1,13.4,5.5,20.3
		c0.8-1.6,4.7-17.4,5.8-20.3l6.2-20.4h23.2l-23.2,60.7c-6.8,18.4-17.5,26.5-31,27.2c-3.1,0.1-5.5,0-7.7-0.4c-2.2-0.2-3.8-0.5-4.7-1
		V69.4H244.5z"/>
</g>
</svg>
