<?xml version="1.0" encoding="utf-8"?>
<!-- Generator: Adobe Illustrator 25.2.1, SVG Export Plug-In . SVG Version: 6.00 Build 0)  -->
<svg version="1.1" id="Layer_1" xmlns="http://www.w3.org/2000/svg" xmlns:xlink="http://www.w3.org/1999/xlink" x="0px" y="0px"
	 viewBox="0 0 261.1 72.8" style="enable-background:new 0 0 261.1 72.8;" xml:space="preserve">
<style type="text/css">
	.st0{fill-rule:evenodd;clip-rule:evenodd;fill:#262262;}
	.st1{fill:#262262;}
</style>
<g>
	<path class="st0" d="M50.9,20.1c0.1,0.1,0.2,0.2,0.3,0.3l-0.3,0.2V20.1L50.9,20.1z M50.9,49.3V48c2.8-3.1,4.5-7.2,4.7-11.6h1.8
		c-0.3,5.3-2.5,10.1-5.9,13.6L50.9,49.3L50.9,49.3z M50.9,22.7v-0.6l1-1c3.1,3.3,5.1,7.7,5.5,12.4l-1.8-0.3
		C55.1,29.2,53.4,25.6,50.9,22.7z M50.5,19.8c0.1,0.1,0.3,0.2,0.4,0.4v0.5l-0.4,0.3V19.8L50.5,19.8z M50.9,22.1v0.6
		c-0.1-0.1-0.2-0.2-0.3-0.3L50.9,22.1L50.9,22.1z M50.9,48v1.3l-0.4-0.5v-0.3C50.6,48.3,50.7,48.2,50.9,48L50.9,48z M50.5,50.9v-0.3
		l0.1,0.1C50.6,50.9,50.5,50.9,50.5,50.9z M36.4,14.4c5.4,0,10.3,2,14.1,5.4v1.2l-0.7,0.6c-3.5-3.3-8.2-5.4-13.3-5.4l0,0L36.4,14.4
		L36.4,14.4L36.4,14.4z M50.5,48.5v0.3l-0.1-0.2C50.4,48.6,50.4,48.5,50.5,48.5L50.5,48.5z M50.5,50.7v0.3c-3,2.7-6.8,4.6-11,5.2
		l0.3-1.8c3.7-0.6,7-2.3,9.6-4.7L50.5,50.7L50.5,50.7z M23,51.5v-0.3l1.2-1c3.3,2.7,7.5,4.3,12.1,4.3v1.8
		C31.3,56.3,26.7,54.5,23,51.5L23,51.5z M23,49.6v-0.4c0.1,0.1,0.1,0.1,0.2,0.2L23,49.6L23,49.6z M23,21.5v-2.4
		c3-2.5,6.6-4.1,10.7-4.6l-0.3,1.8C29.4,17,25.8,18.9,23,21.5z M23,19.2v2.4c-0.2,0.2-0.4,0.4-0.7,0.7l-1-1v-0.5
		C21.9,20.2,22.5,19.7,23,19.2L23,19.2z M23,49.2v0.4l-1.1,1c-0.2-0.2-0.4-0.4-0.6-0.6v-2.7C21.9,48,22.4,48.6,23,49.2L23,49.2z
		 M23,51.2v0.3c-0.1-0.1-0.1-0.1-0.2-0.2L23,51.2L23,51.2z M21.4,23.4v-0.6l0.2,0.3C21.5,23.2,21.4,23.3,21.4,23.4z M21.4,20.7v0.5
		L21.1,21C21.2,20.9,21.3,20.8,21.4,20.7L21.4,20.7z M21.4,22.8v0.6c-2.6,3.3-4.2,7.4-4.2,12c0,0.3,0,0.7,0,1h-1.8c0-0.3,0-0.7,0-1
		c0-5.2,1.9-10,5.1-13.7L21.4,22.8L21.4,22.8z M21.4,47.3V50c-2.8-2.9-4.8-6.6-5.6-10.7l1.9,0.3C18.3,42.5,19.6,45.1,21.4,47.3z"/>
	<path class="st0" d="M36.4,16.8c5,0,9.5,1.9,12.8,5.1l-0.8,0.6c-3.1-2.9-7.3-4.7-12-4.7l0,0L36.4,16.8L36.4,16.8L36.4,16.8z
		 M50.1,22.9c2.5,2.8,4.2,6.3,4.7,10.2l-1-0.2c-0.5-3.6-2.1-6.8-4.4-9.3L50.1,22.9L50.1,22.9z M54.9,36.4c-0.2,4.5-2.1,8.6-5,11.7
		l-0.6-0.8c2.7-2.9,4.4-6.7,4.6-10.9H54.9L54.9,36.4z M48.9,49.1c-2.5,2.2-5.5,3.8-8.9,4.5l0.2-1.1c3.1-0.7,5.8-2.1,8-4.1L48.9,49.1
		L48.9,49.1z M33,18.2c-3.7,0.7-7,2.6-9.4,5.3l-0.7-0.7c2.7-2.9,6.3-4.9,10.3-5.6L33,18.2L33,18.2z M22.7,24.5
		c-2.4,3-3.8,6.8-3.8,10.9c0,0.3,0,0.7,0,1h-1c0-0.3,0-0.7,0-1c0-4.4,1.6-8.5,4.2-11.7L22.7,24.5L22.7,24.5z M19.5,40
		c0.9,3.2,2.6,6,4.9,8.2l-0.7,0.7c-2.6-2.4-4.4-5.5-5.3-9.1L19.5,40L19.5,40z M25.6,49.2c3,2.3,6.7,3.7,10.7,3.7v1
		c-4.4,0-8.4-1.5-11.6-4.1L25.6,49.2z"/>
	<polygon class="st0" points="36.6,36.4 0,36.4 30.7,30.7 	"/>
	<polygon class="st0" points="36.2,36.4 72.8,36.4 42.1,42.1 	"/>
	<polygon class="st0" points="36.4,36.6 36.4,0 42.1,30.7 	"/>
	<polygon class="st0" points="36.4,36.2 36.4,72.8 30.7,42.1 	"/>
	<polygon class="st0" points="42.1,30.7 44.9,31.2 57.6,15.3 	"/>
	<polygon class="st0" points="30.7,42.1 27.9,41.5 15.1,57.5 	"/>
	<polygon class="st0" points="30.7,30.7 31.3,27.9 15.3,15.1 	"/>
	<polygon class="st0" points="42.1,42.1 41.5,44.9 57.5,57.7 	"/>
</g>
<g>
	<path class="st1" d="M93.5,31l-8.9-7.8L83.3,22v8.7H79V13.2h0.2L88,21c0.5,0.4,0.9,0.8,1.4,1.2v-8.7h4.3V31H93.5z"/>
	<path class="st1" d="M106.1,13.1c5.3,0,9.1,4,9.1,9c0,5-3.8,9-9.1,9c-5.3,0-9.1-4-9.1-9C97,17.2,100.8,13.1,106.1,13.1z
		 M106.1,27.1c2.8,0,4.7-2.3,4.7-5c0-2.7-1.9-5-4.7-5s-4.7,2.3-4.7,5C101.4,24.8,103.3,27.1,106.1,27.1z"/>
	<path class="st1" d="M124.9,13.5c4.1,0,7,2,7,5.9c0,2.5-1.3,4.2-3.2,5l3.5,6.4h-4.6l-2.8-5.7h-1.9v5.7h-4.3V13.5H124.9z
		 M122.9,17.2v4.4h2.2c1.3,0,2.3-0.6,2.3-2.2c0-1.5-1-2.2-2.4-2.2H122.9z"/>
	<path class="st1" d="M143,17.2v13.6h-4.4V17.2H134v-3.7h13.6v3.7H143z"/>
	<path class="st1" d="M161.3,30.7v-6.9h-6.4v6.9h-4.4V13.5h4.4v6.7h6.4v-6.7h4.4v17.3H161.3z"/>
	<path class="st1" d="M174.5,30.1v-4.2c1.2,0.6,2.7,1.1,4.1,1.2c0.5,0,0.9,0,1.4,0c1.4-0.1,2.2-0.5,2.2-1.2c0-0.9-1.1-1.4-3.2-2.2
		c-2.9-1.1-4.8-2.3-4.8-5.5c0-3.2,2.6-5.2,6.6-5.2c1.7,0,3.5,0.3,4.6,0.8V18c-1-0.6-2.7-1.1-4.2-1.1s-2.6,0.6-2.6,1.4
		c0,0.8,1,1.4,3,2.2c2.9,1.2,4.9,2.4,4.9,5.4c0,3.2-2.4,5.1-6.7,5.1C177.8,31.1,175.8,30.7,174.5,30.1z"/>
	<path class="st1" d="M197.8,13.1c5.3,0,9.1,4,9.1,9c0,5-3.8,9-9.1,9c-5.3,0-9.1-4-9.1-9C188.6,17.2,192.4,13.1,197.8,13.1z
		 M197.8,27.1c2.8,0,4.7-2.3,4.7-5c0-2.7-1.9-5-4.7-5s-4.7,2.3-4.7,5C193,24.8,195,27.1,197.8,27.1z"/>
	<path class="st1" d="M225.1,24.3c0,4.1-2.8,6.7-7.5,6.7c-4.7,0-7.5-2.7-7.5-6.7V13.5h4.4v10.4c0,2,1.1,3.2,3.1,3.2
		c2,0,3.1-1.2,3.1-3.2V13.5h4.4V24.3z"/>
	<path class="st1" d="M236.8,17.2v13.6h-4.4V17.2h-4.6v-3.7h13.6v3.7H236.8z"/>
	<path class="st1" d="M255.1,30.7v-6.9h-6.4v6.9h-4.4V13.5h4.4v6.7h6.4v-6.7h4.4v17.3H255.1z"/>
</g>
<g>
	<path class="st1" d="M105.5,44.6v1.6H79.8v-1.6H105.5z"/>
	<path class="st1" d="M112.3,50.5c1.1-2.9,5-11,5.4-11.9c0.1-0.2,0.2-0.2,0.5-0.2c0.5,0,1.2,0.5,1.1,0.8c-1.5,3.3-3.3,6.9-5.1,10.1
		c1.7-2.5,7.8-11.2,10.8-11.2c0.8,0,1.2,0.5,1.3,1.1c0.1,0.5-0.1,1.1-0.3,1.5c-1.3,3.8-5.7,11.8-4.5,12.8c0.3,0.2,0.3,0.4,0.1,0.4
		c-0.1,0-0.2-0.1-0.4-0.1c-3.1-1.9,4.6-14.6,3.2-14.6c-1.9,0-9.7,10.8-11.1,12.9c0,0-0.1,0-0.3,0C112.5,52.1,111.6,51.9,112.3,50.5z
		"/>
	<path class="st1" d="M128.8,50.3c0.7,0,3.1-3.4,3.2-3.6c0.2,0,0.3,0,0.4,0.3c-0.5,0.8-2.8,4.4-4.2,4.4c-0.2,0-0.4-0.1-0.6-0.3
		c-0.5-0.5-0.5-1.4-0.4-2.2c0-0.1,0-0.1,0-0.2c-0.8,1.3-1.8,3-2.5,3.3c-0.1,0-0.1,0-0.2,0c-0.2,0-0.3-0.1-0.4-0.1
		c-2.2-1,0.9-6.5,2.5-7.8c0.4-0.3,0.7-0.5,1-0.5c0.3,0,0.5,0.2,0.7,0.3c0.6,0.7,0.5,1.5,0.2,2.3c0.1-0.1,0.2-0.1,0.4-0.1
		c0.3,0,0.6,0.1,0.8,0.5c0.2,0.2,0.2,0.2,0,0.4c-0.5,0.4-0.9,1.6-1,2.3c-0.1,0.4-0.2,0.7-0.1,0.9C128.7,50.3,128.7,50.3,128.8,50.3z
		 M125,50.9c0.4,0,1.7-2.2,2.7-3.6c0.1-0.3,0.3-0.5,0.5-0.7c0.1-0.9,0.1-1.3-0.2-1.3c-0.1,0-0.3,0.1-0.5,0.3
		C126.4,46.7,124.6,50.5,125,50.9z"/>
	<path class="st1" d="M130.6,52c-1.8-0.8,0.9-5.9,2.1-7.5c0.2-0.2,0.4-0.3,0.6-0.3c0.4,0,0.8,0.4,0.9,0.9c-0.7,0.6-3.3,5.4-2.8,5.8
		c0.4,0,2-2.2,3-3.6c0.2-0.5,0.7-1.5,1.3-1.5c0.5,0,1.1,0.2,0.9,0.7c-0.2,0.3-1,1.9-1.2,2.9c-0.1,0.4-0.1,0.7-0.1,0.8
		c0,0.1,0.1,0.1,0.1,0.1c0.7,0,3.1-3.4,3.2-3.6c0,0,0,0,0.1,0c0.1,0,0.2,0.1,0.3,0.3c-0.5,0.8-2.7,4.3-4.2,4.3
		c-0.2,0-0.4-0.1-0.6-0.3c-0.5-0.5-0.4-1.4-0.3-2.1l0-0.2c-0.4,0.6-2.3,3.4-3.1,3.4C130.9,52.1,130.8,52.1,130.6,52z"/>
	<path class="st1" d="M136.2,43.1c-0.3,0-0.3-0.6,0-0.6c1.4-0.2,3-0.4,4.6-0.6c0.7-1.3,1.4-2.3,1.7-2.5c0.2-0.1,0.4-0.1,0.5-0.1
		c0.8,0,1.2,0.7,0.9,1c-0.3,0.2-0.6,0.7-1,1.3c1.1-0.1,2.2-0.3,3.2-0.4c0.6,0,0.3,1.2-0.5,1.3c-1.1,0.1-2.3,0.2-3.4,0.2
		c-1.9,3.3-4.5,8.7-4.9,11.5c-1,0-0.8-1.7-0.6-2.4c0.5-1.9,2.1-6,3.6-9C139,42.8,137.6,43,136.2,43.1L136.2,43.1z"/>
	<path class="st1" d="M145.7,47.1c-0.3,0.4-0.5,0.8-0.8,1.1c-0.6,0.9-2.8,3.7-3.9,3.7c-0.8,0-1.4-0.9-1.1-1.9
		c0.3-0.7,2.2-5.2,2.7-5.2c0.1,0,0.2,0.1,0.4,0.1c0.4,0.2,1,0.5,0.7,1l0,0.1c-0.7,1-1.3,2.2-1.9,3.3c-0.1,0.2-0.9,1.8-0.5,2
		c0,0,0,0,0.1,0c0.1,0,0.2-0.1,0.4-0.2c1.5-1.2,2.7-2.7,3.8-4.3c0-0.1,0.1-0.1,0.1-0.1C145.6,46.8,145.7,46.9,145.7,47.1z
		 M146.4,40.3c0.1,0.2-0.1,0.3-0.1,0.4c-0.8,1.1-1.6,2.3-2.4,3.4c-0.1,0.1-0.1,0.2-0.1,0.2s-0.1-0.1-0.1-0.2
		c-0.1-1.3,0.8-3.2,1.5-4.2c0.1-0.2,0.2-0.2,0.3-0.2C145.9,39.7,146.3,40,146.4,40.3z"/>
	<path class="st1" d="M148.9,46.5c-0.2,0.4-0.8,1.5-1.4,1.5c0,0-0.1,0-0.1,0c-0.3-0.1,0.1-0.4,0.2-0.6c0.3-0.3,1-1.5,0.8-1.9
		c0-0.1-0.1-0.1-0.2-0.1c-1.1,0-4.7,5.9-2.9,6.1c2,0,4.3-3,5.4-4.5c0,0,0,0,0.1,0c0.1,0,0.3,0.1,0.3,0.3c-0.2,0.2-0.5,0.6-0.8,1.1
		c-1,1.4-2.8,4-4.8,4c-0.5,0-1-0.2-1.3-0.6c-1.6-1.9,1-6.1,2.7-7.2c0.3-0.2,0.6-0.3,0.9-0.3c0.9,0,1.5,0.8,1.3,1.7
		C149,46.1,149,46.3,148.9,46.5L148.9,46.5z"/>
	<path class="st1" d="M154.3,50.3c0.7,0,3.1-3.4,3.2-3.6c0.2,0,0.3,0,0.4,0.3c-0.5,0.8-2.8,4.4-4.2,4.4c-0.2,0-0.4-0.1-0.6-0.3
		c-0.5-0.5-0.5-1.4-0.4-2.2c0-0.1,0-0.1,0-0.2c-0.8,1.3-1.8,3-2.5,3.3c-0.1,0-0.1,0-0.2,0c-0.2,0-0.3-0.1-0.4-0.1
		c-2.2-1,0.9-6.5,2.5-7.8c0.4-0.3,0.7-0.5,1-0.5c0.3,0,0.5,0.2,0.7,0.3c0.6,0.7,0.5,1.5,0.2,2.3c0.1-0.1,0.2-0.1,0.4-0.1
		c0.3,0,0.6,0.1,0.8,0.5c0.2,0.2,0.2,0.2,0,0.4c-0.5,0.4-0.9,1.6-1,2.3c-0.1,0.4-0.2,0.7-0.1,0.9C154.2,50.3,154.3,50.3,154.3,50.3z
		 M150.5,50.9c0.4,0,1.7-2.2,2.7-3.6c0.1-0.3,0.3-0.5,0.5-0.7c0.1-0.9,0.1-1.3-0.2-1.3c-0.1,0-0.3,0.1-0.5,0.3
		C152,46.7,150.1,50.5,150.5,50.9z"/>
	<path class="st1" d="M155.8,54.2c-0.6,0-0.8-1-0.7-1.5c0.3-2.6,3.8-10.2,4.8-12c0.3-0.4,0.5-0.7,1-0.7c0.8,0,1.3,0.7,1.1,0.9
		C160.6,42.2,156.2,50.9,155.8,54.2z"/>
	<path class="st1" d="M173.3,40.5c0-0.4-0.2-1.2-0.8-1.2c-1.7,0-4.7,3.8-5.4,4.7c-1.3,1.7-2.9,4.4-2.9,6.6c0,0.6,0.2,2,1.2,2
		c2,0,5.4-4.4,6.1-5.8c-1.6,0.3-4,1-5.2,1.7c-0.1,0.1-0.2,0.1-0.2,0.1c-0.2,0-0.3-0.3-0.3-0.5c0-0.1,0-0.3,0.2-0.4
		c0.1-0.1,0.2-0.2,0.4-0.3c1.7-1,4.8-2.1,6.6-2.1c0.1,0,0.4,0,0.5,0c0.2,0.1,0.4,0.6,0.4,0.7c0,0.1-0.1,0.2-0.3,0.3
		c-0.4,0.1-0.8,0.1-1.2,0.1c-0.2,2-3.7,6.8-6.8,6.8c-2,0-2.9-1.7-2.9-3c0-3.7,5.7-12.4,9.6-12.4c1.3,0,1.7,1.2,1.7,2
		c0,0.5-0.4,2.7-1,2.7c-0.2,0-0.3-0.2-0.3-0.3c0-0.1,0-0.1,0-0.1C173,41.8,173.3,41.2,173.3,40.5z"/>
	<path class="st1" d="M177.8,47c-0.4,1.1-2,3.9-2.5,5.5c0.8,0.1,3.9-4.7,4.6-5.5c0.1-0.1,0.1-0.1,0.2-0.1c0.1,0,0.1,0,0.1,0.1
		c0.1,0.1,0.2,0.2,0.1,0.3c-0.4,0.5-3.4,5.5-4.9,6.2c-0.1,0-0.1,0.1-0.2,0.1c-0.8,0-1.1-1-1.1-1.6c-0.1-2.1,3.4-6.3,2.8-7.5
		c0-0.1-0.1-0.2-0.2-0.3c-1.2,1.7-1.7,3-2.4,3.8c-0.2,0.1-0.2,0.1-0.3,0.1c-0.2,0-0.2-0.3-0.2-0.3c0.6-0.8,1.6-2.7,2.4-4.1
		c-1.4-1.4-0.1-3.4,1.1-3.5c0.6-0.1,0.8,1.2,0.7,1.6c-0.2,0.5-0.5,1.1-0.9,1.7c0.1,0.1,0.2,0.2,0.3,0.3
		C178.5,44.5,178.2,46,177.8,47z M176.7,42.8c0.2-0.3,0.4-0.7,0.5-1c0.2-0.4,0.1-0.6,0-0.6C176.9,41.2,176.2,42.1,176.7,42.8z"/>
	<path class="st1" d="M179.8,46.3c0.2-0.4,0.4-0.5,0.8-0.5c0.4-0.6,1.1-1.1,1.9-1.1c0.2,0,0.4,0,0.5,0.1c2.7,1.3-0.5,7.6-3.1,7.6
		c-0.9,0-1.4-0.7-1.5-1.5C178.2,49.4,179,47.4,179.8,46.3z M179.6,51.2c0,0.3,0.1,0.4,0.3,0.4c1.1,0,4.6-5,2.9-6.2
		c-0.1-0.1-0.2-0.1-0.4-0.1c-0.3,0-0.7,0.2-1,0.7c0.1,0.1,0.3,0.2,0.3,0.3c0.1,0.1-0.1,0.3-0.2,0.4c-0.4,0.6-1,1.8-1.3,2.5
		C180,49.5,179.5,50.6,179.6,51.2z"/>
	<path class="st1" d="M184.4,52c-1.8-0.8,0.9-5.9,2.1-7.5c0.2-0.2,0.4-0.3,0.6-0.3c0.4,0,0.8,0.4,0.9,0.9c-0.7,0.6-3.3,5.4-2.8,5.8
		c0.4,0,2-2.2,3-3.6c0.2-0.5,0.7-1.5,1.3-1.5c0.5,0,1.1,0.2,0.9,0.7c-0.2,0.3-1,1.9-1.2,2.9c-0.1,0.4-0.1,0.7-0.1,0.8
		c0,0.1,0.1,0.1,0.1,0.1c0.7,0,3.1-3.4,3.2-3.6c0,0,0,0,0.1,0c0.1,0,0.2,0.1,0.3,0.3c-0.5,0.8-2.7,4.3-4.2,4.3
		c-0.2,0-0.4-0.1-0.6-0.3c-0.5-0.5-0.4-1.4-0.3-2.1l0-0.2c-0.4,0.6-2.3,3.4-3.1,3.4C184.7,52.1,184.5,52.1,184.4,52z"/>
	<path class="st1" d="M199.5,46.2c0.3,1.9-3.2,7.3-5.5,7.3c-0.2,0-0.4,0-0.6-0.1c-0.6-0.3-1-1.2-0.8-2.2c-0.8,1.2-1.6,2.4-2.2,3.4
		c-0.6,1.4-1,2.7-1.1,3.6c-1.5,0-0.6-2.8-0.4-3.6c1-3.1,3.4-7.5,4.2-8.9c0.3-0.4,0.4-0.7,1-0.7c0.8,0,1.3,0.7,1.1,0.9
		c-0.6,0.6-1.7,2.4-2.9,4.6c0.8-1.2,4.1-5.8,5.7-5.8C198.7,44.6,199.3,45.3,199.5,46.2z M193.6,52.4c1.2,0,4.9-5.5,4.6-6.8
		c0-0.2-0.1-0.2-0.2-0.2c-0.7,0-2.7,2.2-4.5,4.7C193,51.8,193.1,52.4,193.6,52.4z"/>
	<path class="st1" d="M218.2,38.9c-1.2,0-2.5,0.2-3.7,0.5c-3,3.9-5.7,9.7-7.1,14.3c0.9-0.3,2.1-0.7,3.1-0.7c1.3,0,1.1,1,0.7,1
		c-1.7,0.1-5.7,1-7.1,2c0,0.1-0.1,0.1-0.1,0.1c-0.3,0-0.5-0.5,0.1-1c0.6-0.4,1.5-0.8,2.4-1.1c-0.1-0.6,0.1-1.3,0.2-1.8
		c0.2-0.5,0.3-1.1,0.5-1.7c-0.2-3.1-1.3-6.4,0.6-9.2c1.4-2.1,7.2-3.8,9.7-3.9C218.6,37.4,218.7,38.9,218.2,38.9z M207.4,49.8
		c1.1-3.3,3.3-7.8,4.9-10C206.8,41.3,206.8,44.7,207.4,49.8z"/>
	<path class="st1" d="M218.2,45.6L218.2,45.6c-0.3,0.8-2.8,5.4-1.6,5.3c1.1-0.2,2.3-2,3.1-2.9l0,0c0,0,0.1-0.1,0.1-0.1
		c0.4-0.6,0.8-1,0.8-1.1c0,0,0,0,0.1,0c0.1,0,0.2,0.1,0.3,0.3c-0.1,0.1-0.2,0.3-0.4,0.6c-0.8,1.2-3.1,4.2-4.6,4.2
		c-0.1,0-0.1,0-0.2,0c-1.9-0.4-0.1-4.3,0.5-5.4c-1.4,1.8-2.9,3.6-4.1,5.5c-0.1,0.2-0.2,0.3-0.4,0.3c-0.1,0-0.2-0.1-0.4-0.1
		c-0.8-0.4-0.9-0.9-0.7-1.7c0.8-2.2,1.1-2.5,2.1-4.6c0.2-0.4,0.4-0.5,0.8-0.5c0.3,0,0.7,0.1,0.9,0.4l0.1,0.1
		c0.2,0.2,0.1,0.4-0.1,0.7c-0.8,1.5-0.8,1.3-1.5,2.8c-0.2,0.5-0.5,0.9-0.8,1.4c0.4-0.7,4.5-6.1,4.9-6.2c0.4,0,0.7,0.1,1,0.4
		C218.3,44.9,218.3,45.2,218.2,45.6z"/>
	<path class="st1" d="M223.9,46.5c-0.2,0.4-0.8,1.5-1.4,1.5c0,0-0.1,0-0.1,0c-0.3-0.1,0.1-0.4,0.2-0.6c0.3-0.3,1-1.5,0.8-1.9
		c0-0.1-0.1-0.1-0.2-0.1c-1.1,0-4.7,5.9-2.9,6.1c2,0,4.3-3,5.4-4.5c0,0,0,0,0.1,0c0.1,0,0.3,0.1,0.3,0.3c-0.2,0.2-0.5,0.6-0.8,1.1
		c-1,1.4-2.8,4-4.8,4c-0.5,0-1-0.2-1.3-0.6c-1.6-1.9,1-6.1,2.7-7.2c0.3-0.2,0.6-0.3,0.9-0.3c0.9,0,1.5,0.8,1.3,1.7
		C224,46.1,224,46.3,223.9,46.5L223.9,46.5z"/>
	<path class="st1" d="M258.4,44.6v1.6h-25.7v-1.6H258.4z"/>
</g>
</svg>
